<?xml version="1.0" encoding="UTF-8"?>
<svg width="27px" height="78px" viewBox="0 0 27 78" version="1.1" xmlns="http://www.w3.org/2000/svg" xmlns:xlink="http://www.w3.org/1999/xlink">
    <!-- Generator: Sketch 51.3 (57544) - http://www.bohemiancoding.com/sketch -->
    <title>clef</title>
    <desc>Created with Sketch.</desc>
    <defs></defs>
    <g id="Page-1" stroke="none" stroke-width="1" fill="none" fill-rule="evenodd">
        <g id="clef" fill="#F5FFFA" fill-rule="nonzero">
            <path d="M26.9992295,46.2642328 C27.0323909,43.1201217 25.9937805,40.2589772 24.1495316,38.4148966 C21.7337944,35.9991594 18.086538,35.3960247 14.5966723,36.4799165 C13.8432168,33.12943 13.0626598,29.7669918 12.2954011,26.4734016 C12.9192407,25.6716347 13.5254054,24.9116143 14.1103602,24.1783587 C18.2671586,18.9671266 21.2705439,15.2017009 20.574658,8.59044894 C19.974385,2.88751817 17.9237606,0.927119942 16.3092853,0.286615454 C14.7562513,-0.32964918 13.0037435,0.0581884919 11.5020508,1.35064407 C8.08995466,4.2875381 5.52827337,12.2309721 7.96707207,22.7307007 C8.19364737,23.7061865 8.42342099,24.6929506 8.65538293,25.688468 C7.22102321,27.5875932 5.67707915,29.7680018 4.11966849,32.3145332 C-0.605924804,40.0403135 -0.419580922,45.7227077 0.568866477,49.1294172 C1.56960214,52.5787149 3.85488175,55.3986179 6.83823551,56.8658025 C9.79903273,58.3218771 12.7392934,58.9009403 15.4913586,58.6255486 C15.9785123,61.9422003 16.3007004,64.9698255 16.3882332,67.54834 C15.4839519,67.1145476 14.4402915,66.8654158 13.3287932,66.8654158 C9.89447716,66.8654158 7.10049727,69.2314949 7.10049727,72.1397724 C7.10049727,75.04805 9.89447716,77.4141291 13.3287932,77.4141291 C16.6794481,77.4141291 19.1337334,75.1781709 19.4890829,73.0189722 C20.081276,69.4212054 19.7094299,64.0902891 18.7847805,57.8512199 C20.5531115,57.1790689 22.1982233,56.1059504 23.6652395,54.6389342 C25.749867,52.5548117 26.9648897,49.5022733 26.9992295,46.2642328 Z M13.6986193,3.90222542 C14.0009442,3.64198364 14.412685,3.3662553 14.800186,3.3662553 C14.8914222,3.3662553 14.9813116,3.38157354 15.0681711,3.41591334 C15.8273499,3.71705986 16.8479488,5.34500175 17.2265281,8.94276849 C17.7779848,14.1812704 15.4068557,17.1538509 11.4784843,22.0787496 C11.425628,22.1452409 11.3722666,22.2119005 11.3187369,22.2792334 C11.2946654,22.1757091 11.2705939,22.072353 11.2466907,21.9691653 C8.99659255,12.2814718 11.5565905,5.74613768 13.6986193,3.90222542 Z M8.32427325,53.8445739 C6.21961422,52.8094985 4.52922104,50.6960862 3.80236207,48.1911329 C2.65585062,44.2395316 3.75876399,39.3570526 6.99192292,34.071081 C7.89839248,32.5890832 8.79105879,31.2474746 9.66201022,30.012757 C10.2648083,32.6128181 10.8766963,35.2761721 11.4734343,37.947606 C10.6819358,38.4584946 9.92477698,39.0663427 9.22165287,39.7692984 C8.56431515,40.4266362 8.56431515,41.4925164 9.22165287,42.1498541 C9.87915892,42.8073602 10.9447025,42.8073602 11.6023769,42.1498541 C11.8170006,41.9350621 12.0383576,41.7320533 12.2647646,41.5408278 C13.2939484,46.290156 14.2411544,50.9879744 14.9695284,55.3206801 C12.9017341,55.4873291 10.6677959,54.9971454 8.32427325,53.8445739 Z M13.3291299,74.0474827 C11.8047124,74.0474827 10.4674804,73.1559947 10.4674804,72.1397724 C10.4674804,71.1235502 11.8047124,70.2320622 13.3291299,70.2320622 C14.8535474,70.2320622 16.1907794,71.1235502 16.1907794,72.1397724 C16.1907794,73.156163 14.8535474,74.0474827 13.3291299,74.0474827 Z M21.2850204,52.2585468 C20.3403395,53.2032278 19.3229389,53.9326117 18.242582,54.4451837 C17.4613517,49.8357397 16.4417629,44.8472113 15.3275712,39.7676151 C17.7316934,38.9232602 20.1969203,39.2232284 21.7691442,40.7954523 C24.188753,43.2150611 24.4459648,49.0974341 21.2850204,52.2585468 Z" id="XMLID_1281_"></path>
        </g>
    </g>
</svg>