<?xml version="1.0" encoding="UTF-8"?>
<svg width="295px" height="293px" viewBox="0 0 295 293" version="1.1" xmlns="http://www.w3.org/2000/svg" xmlns:xlink="http://www.w3.org/1999/xlink">
    <!-- Generator: Sketch 51.3 (57544) - http://www.bohemiancoding.com/sketch -->
    <title>Group</title>
    <desc>Created with Sketch.</desc>
    <defs></defs>
    <g id="Page-1" stroke="none" stroke-width="1" fill="none" fill-rule="evenodd">
        <g id="Group">
            <path d="M104,293 C46.6550146,293 0,246.344379 0,188.998648 C0,131.652916 46.6550146,85 104,85 C161.344985,85 208,131.652916 208,188.998648 C208,246.344379 161.344985,293 104,293 Z M104,94.4539308 C51.8674575,94.4539308 9.45380791,136.865426 9.45380791,188.998648 C9.45380791,241.134573 51.8674575,283.546069 104,283.546069 C156.132542,283.546069 198.543487,241.134573 198.543487,188.998648 C198.543487,136.865426 156.132542,94.4539308 104,94.4539308 Z" id="Shape" fill="#F5FFFA" fill-rule="nonzero"></path>
            <path d="M71,146.5 C71,151.746066 66.7487834,156 61.5,156 C56.2539339,156 52,151.746066 52,146.5 C52,141.251216 56.2539339,137 61.5,137 C66.7487834,137 71,141.251216 71,146.5 Z" id="Shape" fill="#F5FFFA" fill-rule="nonzero"></path>
            <path d="M156,146.5 C156,151.746066 151.746675,156 146.498641,156 C141.253326,156 137,151.746066 137,146.5 C137,141.251216 141.253326,137 146.498641,137 C151.746675,137 156,141.251216 156,146.5 Z" id="Shape" fill="#F5FFFA" fill-rule="nonzero"></path>
            <path d="M235.5,193 C229.308995,193 223.249771,190.493477 218.876802,186.128577 C214.498455,181.691062 212,175.637217 212,169.5 C212,163.362783 214.498455,157.308938 218.852598,152.898318 C223.308938,148.495766 229.362783,146 235.5,146 C241.637217,146 247.691062,148.495766 252.101682,152.852597 C256.504234,157.317006 259,163.368162 259,169.5 C259,175.631838 256.504234,181.680304 252.147402,186.101682 C250.845731,187.336118 249.721561,188.253204 248.586633,189.030442 C247.201591,189.915256 245.870336,190.609121 244.50143,191.176585 C243.019569,191.797838 241.518883,192.255036 240.053158,192.540113 C238.42876,192.849393 236.941519,193 235.5,193 Z M235.5,155.399462 C231.815518,155.399462 228.171378,156.908217 225.498112,159.543831 C222.910906,162.168688 221.399462,165.812829 221.399462,169.5 C221.399462,173.184481 222.910906,176.828622 225.543832,179.501889 C228.141794,182.094473 231.783246,183.600538 235.5,183.600538 C236.344472,183.600538 237.25349,183.50372 238.286221,183.307394 C239.111868,183.148719 239.985923,182.879778 240.878805,182.503262 C241.760929,182.134813 242.605402,181.693752 243.412222,181.185454 C244.106088,180.704052 244.859121,180.061284 245.574502,179.380865 C248.091783,176.828622 249.600538,173.181792 249.600538,169.5 C249.600538,165.818208 248.091783,162.168688 245.456168,159.498111 C242.831312,156.908217 239.187171,155.399462 235.5,155.399462 Z" id="Shape" fill="#F5FFFA" fill-rule="nonzero"></path>
            <path d="M89.2490934,125 L41.7509066,125 C39.1254056,125 37,122.988841 37,120.501288 C37,118.013734 39.1254056,116 41.7509066,116 L89.2490934,116 C91.8745944,116 94,118.013734 94,120.501288 C94,122.988841 91.8745944,125 89.2490934,125 Z" id="Shape" fill="#F5FFFA" fill-rule="nonzero"></path>
            <path d="M171.249093,125 L123.750907,125 C121.125406,125 119,122.988841 119,120.501288 C119,118.013734 121.125406,116 123.750907,116 L171.249093,116 C173.874594,116 176,118.013734 176,120.501288 C176,122.988841 173.874594,125 171.249093,125 Z" id="Shape-Copy" fill="#F5FFFA" fill-rule="nonzero"></path>
            <path d="M235.998649,142 C222.988968,142 212.39919,131.382975 212.39919,118.333785 L212.39919,94.6675701 C212.39919,81.6183794 222.988968,71.0013545 235.998649,71.0013545 C242.507542,71.0013545 247.79838,65.6955503 247.79838,59.168247 C247.79838,52.6409431 242.507542,47.3351388 235.998649,47.3351388 C229.489758,47.3351388 224.19892,52.6409431 224.19892,59.168247 C224.19892,72.2147288 213.611842,82.8344619 200.599459,82.8344619 C187.587077,82.8344619 177,72.2147288 177,59.168247 C177,26.5425624 203.467694,0 235.998649,0 C268.532306,0 295,26.5425624 295,59.168247 C295,82.6502891 280.904603,104.033302 259.59811,113.39091 L259.59811,118.333785 C259.59811,131.382975 249.011032,142 235.998649,142 Z M235.998649,37.866486 C247.711955,37.866486 257.240324,47.4218084 257.240324,59.168247 C257.240324,70.9119766 247.711955,80.4672991 235.998649,80.4672991 C228.19068,80.4672991 221.838433,86.837514 221.838433,94.6675701 L221.838433,118.333785 C221.838433,126.163841 228.19068,132.534056 235.998649,132.534056 C243.806619,132.534056 250.158866,126.163841 250.158866,118.333785 L250.158866,110.203094 C250.158866,108.225944 251.385022,106.454635 253.232359,105.766694 C272.56998,98.5487426 285.558055,79.8254026 285.558055,59.168247 C285.558055,31.761697 263.327893,9.46865286 235.998649,9.46865286 C208.672107,9.46865286 186.439244,31.761697 186.439244,59.168247 C186.439244,66.9983031 192.79149,73.368518 200.599459,73.368518 C208.407429,73.368518 214.759676,66.9983031 214.759676,59.168247 C214.759676,47.4218084 224.288045,37.866486 235.998649,37.866486 Z" id="Shape" fill="#F5FFFA" fill-rule="nonzero"></path>
            <path d="M88.9335938,165.335938 C97.4029405,180.607554 116.979528,169.920339 127.511719,163.128906" id="Path-2" stroke="#F5FFFA" stroke-width="7"></path>
        </g>
    </g>
</svg>